<svg xmlns="http://www.w3.org/2000/svg" viewBox="0 0 128 128">
  <defs>
    <linearGradient id="g" x1="0" x2="1" y1="0" y2="1">
      <stop offset="0%" stop-color="#111827" />
      <stop offset="100%" stop-color="#2563eb" />
    </linearGradient>
  </defs>
  <rect width="128" height="128" rx="28" fill="url(#g)"/>
  <path d="M32 44c0-8.837 7.163-16 16-16h32c8.837 0 16 7.163 16 16v8H82v-4a8 8 0 0 0-8-8H54a8 8 0 0 0-8 8v32a8 8 0 0 0 8 8h20a8 8 0 0 0 8-8v-4h14v8c0 8.837-7.163 16-16 16H48c-8.837 0-16-7.163-16-16V44Z" fill="#fff"/>
  <path d="M62 56h34v16H62z" fill="#93c5fd"/>
  <path d="M32 56h30v16H32z" fill="#ffffff" opacity=".78"/>
</svg>
